<svg version="1.1" xmlns="http://www.w3.org/2000/svg" xmlns:xlink="http://www.w3.org/1999/xlink" viewBox="0 0 328 62" fill="#E67C29" >
  <path d="M64.4,14.13C51.21,14.09,39.96,25.69,40.2,39.06c0.24,13.02,10.92,23.73,23.75,23.81
	c12.9,0.08,23.87-11.21,23.8-24.47C87.68,25.52,76.75,14.16,64.4,14.13z M73.45,39.62c-0.43,5.5-4.7,9.25-10.12,8.87
	c-5.51-0.39-9.27-5.05-8.81-10.93c0.42-5.4,4.89-9.35,10.12-8.95C70.08,29.04,73.91,33.81,73.45,39.62z M268.18,7.4
	c-0.33-4.25,2.14-6.81,6.1-7.36c4.56-0.04,6.99,2.34,7.26,6.19c0.29,4.16-1.87,7.1-6.41,7.29C270.98,13.7,268.48,11.26,268.18,7.4z
	 M115.74,57.96c-1.35,3.71-4.27,5.18-8.1,4.99c-7.77-0.38-15.4-7.44-15.85-16.35c-0.67-13.01-0.41-26.09-0.18-39.13
	c0.07-4.22,2.26-7.59,7.22-7.47c4.95,0.12,6.7,3.45,6.81,7.79c0.16,5.95,0.04,11.9,0.04,17.86c0.01,0,0.02,0,0.04,0
	c0,4.35,0.16,8.71-0.04,13.05c-0.25,5.31-0.22,9.88,6.65,11.42C115.6,50.85,117.06,54.35,115.74,57.96z M38.88,25.11
	C35,35.64,31.03,46.15,27.05,56.65c-1.3,3.43-3.48,6.18-7.46,6.09c-3.99-0.09-5.86-2.94-7.14-6.43C8.75,46.19,4.94,36.11,1.11,26.04
	c-1.86-4.89-1.85-9.42,3.79-11.35c5.46-1.86,7.83,2.19,9.54,6.5c1.59,4.04,3.09,8.11,5.35,14.04c2.37-6.17,3.99-10.64,5.8-15.04
	c1.73-4.21,4.54-7.32,9.5-5.4C39.87,16.65,40.5,20.68,38.88,25.11z M300.18,37.06c-0.56,3.99,0.69,7.32,3.98,9.66
	c3.54,2.52,7.47,2.68,10.96,0.22c4.36-3.07,8.64-4.39,11.74,0.87c3.05,5.18-0.6,8.59-4.64,11.31c-8.29,5.58-18.79,4.96-26.95-1.51
	c-8.01-6.35-11.28-17.14-8.05-26.59c3.32-9.71,13.27-16.99,23.69-16.81c4.72,0.4,9.67,1.96,13.8,5.64c3.36,3,4.54,6.57,1.65,10.3
	c-2.66,3.45-6.09,3.22-9.81,1.08C308.67,26.68,301.24,29.43,300.18,37.06z M263.1,37.71c0.05,2.53,0.01,5.05,0.01,7.58
	c-0.01,0-0.03,0-0.04,0c0,3.44,0.13,6.9-0.03,10.33c-0.19,4.05-2.62,6.57-6.52,6.65c-4.26,0.09-6.82-2.42-6.9-6.89
	c-0.09-5.28,0.11-10.57-0.13-15.85c-0.34-7.32-4.24-11.3-10.41-11.05c-5.89,0.24-9.09,4.12-9.22,11.32
	c-0.09,4.82-0.01,9.65-0.05,14.47c-0.04,4.54-2.23,7.76-6.8,7.99c-4.66,0.24-7.25-2.9-7.31-7.39c-0.1-7.32-0.93-14.69,0.79-21.96
	c2.94-12.38,13.78-20.26,25.88-18.81C254.27,15.55,262.85,25.28,263.1,37.71z M281.86,23c0.17,10.8,0.18,21.61-0.03,32.41
	c-0.08,4.02-2.09,7.28-6.56,7.48c-4.9,0.22-7.02-3.19-7.29-7.46c-0.35-5.49-0.08-11.03-0.08-16.54c-0.02,0-0.03,0-0.05,0
	c0-5.29-0.11-10.58,0.03-15.86c0.13-4.72,2.37-8.3,7.37-8.21C280.03,14.9,281.79,18.78,281.86,23z M210.7,33.2
	c-3.21-13.14-15.38-21.28-27.8-18.41c-13.49,3.12-21.81,16.78-18.26,29.97c3.5,12.98,16.31,20.48,29.21,17.18
	c2.32-0.59,4.39-1.55,7.18-0.34c5.74,2.48,9.71-0.17,10.4-6.49c0.32-2.94,0.06-5.95,0.06-8.92C211.5,41.83,211.76,37.51,210.7,33.2z
	 M187.89,48.46c-5.36,0.08-10.12-4.67-10.02-10c0.1-5.16,4.55-9.78,9.52-9.87c5.3-0.1,9.93,4.64,9.91,10.12
	C197.28,44,193.05,48.38,187.89,48.46z M134.59,32.21c-3.48,3.93-3.67,8.42-0.29,12.5c4.03,4.86,8.92,5.1,13.99,1.54
	c3.71-2.61,7.4-3.09,10.25,0.8c3,4.1,1.5,7.79-2.3,10.68c-7.37,5.62-15.37,6.95-23.81,2.86c-9.01-4.36-13.88-11.6-14.05-20.61
	c-0.03-11.39,4.82-18.62,13.7-23.2c8.38-4.32,16.37-3.11,23.88,2.29c3.83,2.76,5.65,6.45,2.85,10.62
	c-2.84,4.25-6.81,3.86-10.76,1.05C143.17,27.26,138.5,27.8,134.59,32.21z"/>
</svg>
